# xmcd
#
# Track frame offsets: 
#        150
#        17812
#        27225
#        42000
#        63812
#        87837
#        105375
#        121262
#        136762
#        153637
#
# Disc length: 2319 seconds
#
# Revision: 3
# Processed by: cddbd v1.5.2PL0 Copyright (c) Steve Scherf et al.
# Submitted via: ExactAudioCopyFreeDBPlugin 1.0
#
DISCID=70090d0a
DTITLE=Forever Soul Vol. 3 - Forever Soul Vol. 3
DYEAR=1995
DGENRE=Soul
TTITLE0=Earth, Wind and Fire - After the Love Has Gone
TTITLE1=Bill Withers - Ain't No Sunshine
TTITLE2=People's Choice - Do it Any Way You Wanna
TTITLE3=Heatwave - Always and Forever
TTITLE4=Cheryl Lynn - Encore
TTITLE5=Harold Melvin and the Blue Notes - Don't Leave Me This Way
TTITLE6=Phoebe Snow - Every Night
TTITLE7=The Three Degrees - Get Your Love Back
TTITLE8=Gladys Knight and The Pips - Hero
TTITLE9=Esther Phillips - What a Diff'rence A Day Makes
EXTD=
EXTT0=
EXTT1=
EXTT2=
EXTT3=
EXTT4=
EXTT5=
EXTT6=
EXTT7=
EXTT8=
EXTT9=
PLAYORDER=
